<?xml version="1.0" encoding="UTF-8" standalone="no"?>
<svg
   stroke="currentColor"
   fill="none"
   stroke-width="2"
   viewBox="0 0 24 24"
   stroke-linecap="round"
   stroke-linejoin="round"
   height="200px"
   width="200px"
   version="1.1"
   id="svg1"
   sodipodi:docname="icon.svg"
   inkscape:version="1.4 (e7c3feb100, 2024-10-09)"
   xmlns:inkscape="http://www.inkscape.org/namespaces/inkscape"
   xmlns:sodipodi="http://sodipodi.sourceforge.net/DTD/sodipodi-0.dtd"
   xmlns="http://www.w3.org/2000/svg"
   xmlns:svg="http://www.w3.org/2000/svg">
  <defs
     id="defs1">
    <linearGradient
       id="swatch224">
      <stop
         style="stop-color:#000000;stop-opacity:1;"
         offset="0.51715928"
         id="stop225" />
    </linearGradient>
    <linearGradient
       id="swatch224-1"
       inkscape:swatch="solid">
      <stop
         style="stop-color:#000000;stop-opacity:1;"
         offset="0.51715928"
         id="stop224" />
    </linearGradient>
    <linearGradient
       id="swatch96"
       inkscape:swatch="solid">
      <stop
         style="stop-color:#000000;stop-opacity:1;"
         offset="0"
         id="stop96" />
    </linearGradient>
    <linearGradient
       id="linearGradient92"
       inkscape:swatch="gradient">
      <stop
         style="stop-color:#000000;stop-opacity:1;"
         offset="0"
         id="stop92" />
      <stop
         style="stop-color:#000000;stop-opacity:0;"
         offset="1"
         id="stop93" />
    </linearGradient>
    <linearGradient
       id="swatch90"
       inkscape:swatch="solid">
      <stop
         style="stop-color:#000000;stop-opacity:1;"
         offset="0"
         id="stop90" />
    </linearGradient>
    <clipPath
       clipPathUnits="userSpaceOnUse"
       id="clipPath223">
      <path
         id="path224"
         style="fill:#ff0000;fill-opacity:1;fill-rule:nonzero;stroke:none;stroke-width:0.24"
         d="M 1.9999219,1.0000781 V 22.999922 h 5.9273437 c 1.04e-4,-0.0032 -3.94e-5,-0.0039 2.4e-4,-0.01195 0.00192,-0.04731 0.00488,-0.09461 0.01125,-0.141562 0.00784,-0.05339 0.019017,-0.106151 0.031406,-0.158673 0.00997,-0.05588 0.018706,-0.111974 0.023906,-0.168515 0.00616,-0.07986 0.014083,-0.159576 0.014062,-0.239766 -8.28e-4,-0.0959 -0.00152,-0.191974 -0.00516,-0.287811 -0.00388,-0.0889 -0.00978,-0.177561 -0.017109,-0.266251 -0.00564,-0.09303 -0.013946,-0.185852 -0.022266,-0.278672 -0.010502,-0.113468 -0.024844,-0.22645 -0.036094,-0.339844 -0.00772,-0.08604 -0.016735,-0.17226 -0.016406,-0.25875 7.92e-4,-0.208653 0.1061785,-0.31289 0.2114061,-0.312891 0.00167,0 0.00325,0.0011 0.00492,0.0012 0.031107,-0.03637 0.072668,-0.05678 0.1171875,-0.05906 0.00314,-1.2e-4 0.00644,0.0016 0.00961,0.0016 0.028787,-0.02607 0.065064,-0.04032 0.1040624,-0.04125 0.09488,-0.0023 0.2060136,0.0735 0.2655469,0.246094 0.017114,0.04962 0.032358,0.09985 0.047109,0.150234 0.033924,-0.08394 0.092583,-0.130681 0.1577344,-0.130546 0.068364,1.2e-4 0.137966,0.05087 0.1846874,0.143204 -0.00369,-0.06625 -0.00649,-0.132568 -0.00633,-0.198986 4.92e-4,-0.208652 0.1060506,-0.31289 0.2114064,-0.31289 0.089618,0 0.1751652,0.08014 0.1996874,0.231095 0.00975,0.02434 0.018136,0.05102 0.024844,0.08062 0.022932,0.101202 0.049642,0.201492 0.074062,0.302345 0.031612,-0.02802 0.043651,-0.08518 0.051562,-0.144844 7.92e-4,-0.01315 0.00249,-0.0256 0.00516,-0.0375 0.0086,-0.08873 0.010319,-0.173904 0.039609,-0.178592 0.012755,-0.0021 0.033558,0.01835 0.060235,0.05344 0.018919,-0.0079 0.039386,-0.01282 0.061172,-0.01336 0.084304,-0.0021 0.1850557,0.0537 0.2634374,0.189141 0.051097,0.08829 0.096909,0.179583 0.1392195,0.272343 0.06371,0.147755 0.117524,0.299494 0.168984,0.451876 0.043,0.132438 0.08474,0.265404 0.123516,0.39914 0.02896,0.103023 0.0597,0.205465 0.08883,0.308437 0.02815,0.09706 0.0537,0.194954 0.07734,0.293205 0.01859,0.08217 0.03607,0.164583 0.04969,0.247734 0.0094,0.06999 0.0069,0.144877 -0.02226,0.21 H 22.000085 V 1.0000781 Z M 10.075078,22.23164 c 2.04e-4,0.0015 4.92e-4,0.003 7.08e-4,0.0045 0.01609,0.115121 0.03324,0.229925 0.05531,0.344063 0.02081,0.103181 0.06086,0.201118 0.09891,0.298828 0.01712,0.0403 0.03372,0.08102 0.0518,0.120938 h 0.05836 c 0.04218,-0.169536 0.130563,-0.375602 -0.05625,-0.228516 -0.01024,0.0081 -0.0038,0.0027 -0.01898,0.01664 -0.01331,0.01844 -0.02846,0.03849 -0.03375,0.06094 6.6e-4,0.0038 -5.76e-4,0.031 -0.0014,0.02672 -0.0013,-0.0068 -0.0013,-0.01314 -4.68e-4,-0.01945 -0.01178,-0.07246 -0.02715,-0.144223 -0.04312,-0.215859 -0.02218,-0.09282 -0.04659,-0.185127 -0.07312,-0.276798 -0.01243,-0.04406 -0.02521,-0.088 -0.03797,-0.131953 z m 0.154219,0.62461 c 7.6e-5,4.8e-4 1.56e-4,9.6e-4 2.4e-4,0.0014 5.88e-4,-0.0052 8.64e-4,-0.0052 0.0012,-0.0063 -3.36e-4,0.0017 -0.0012,0.0032 -0.0014,0.0049 z M 8.355,22.918594 c -0.00297,0.02702 -0.005,0.05416 -0.00609,0.08133 h 0.025078 c -0.00664,-0.02701 -0.013047,-0.05416 -0.018984,-0.08133 z" />
    </clipPath>
  </defs>
  <sodipodi:namedview
     id="namedview1"
     pagecolor="#ffffff"
     bordercolor="#000000"
     borderopacity="0.25"
     inkscape:showpageshadow="2"
     inkscape:pageopacity="0.0"
     inkscape:pagecheckerboard="0"
     inkscape:deskcolor="#d1d1d1"
     inkscape:zoom="2.135"
     inkscape:cx="57.845433"
     inkscape:cy="144.73068"
     inkscape:window-width="1384"
     inkscape:window-height="838"
     inkscape:window-x="0"
     inkscape:window-y="0"
     inkscape:window-maximized="1"
     inkscape:current-layer="svg1" />
  <path
     d="m 3,9 9,-7 9,7 v 11 c 0,1.104569 -0.895431,2 -2,2 H 5 C 3.8954305,22 3,21.104569 3,20 Z"
     id="path1"
     sodipodi:nodetypes="cccssssc"
     style="display:inline;stroke:#e27396;stroke-opacity:1" />
  <polyline
     points="9 22 9 12 15 12 15 22"
     id="polyline1"
     style="display:inline;stroke:#ffc6ff;stroke-width:2.00004;stroke-dasharray:none;stroke-opacity:1"
     inkscape:label="polyline1" />
  <path
     d="m 3,9 9,-7 9,7 v 11 c 0,1.104569 -0.895431,2 -2,2 H 5 C 3.8954305,22 3,21.104569 3,20 Z"
     id="path127"
     sodipodi:nodetypes="cccssssc"
     style="stroke:#e27396;stroke-opacity:1"
     clip-path="url(#clipPath223)" />
</svg>
